<?xml version="1.0" encoding="utf-8"?>
<!-- Generator: Adobe Illustrator 26.0.1, SVG Export Plug-In . SVG Version: 6.00 Build 0)  -->
<svg version="1.1" id="Layer_1" xmlns="http://www.w3.org/2000/svg" xmlns:xlink="http://www.w3.org/1999/xlink" x="0px" y="0px"
	 viewBox="0 0 1713.7 578.1" style="enable-background:new 0 0 1713.7 578.1;" xml:space="preserve">
<style type="text/css">
	.st0{fill:#FFFFFF;}
	.st1{fill:#606060;}
	.st2{fill:#181244;}
	.st3{fill:#606161;}
</style>
<g>
	<g>
		<g>
			<path class="st2" d="M293.6,78.7H113.1c-16.4,0-29.8,13.3-29.8,29.8v361.1c0,16.4,13.3,29.8,29.8,29.8h180.6
				C409.8,499.4,504,405.2,504,289v0C504,172.9,409.8,78.7,293.6,78.7z M367.6,406.2c-15.9,13-38.1,19.6-66.7,19.6H193.4
				c-14.5,0-26.3-11.8-26.3-26.3V181.7c0-14.5,11.8-26.3,26.3-26.3h103.3c27.6,0,49.3,6.1,65,18.4c15.7,12.3,23.6,29.5,23.6,51.8
				c0,15.9-4.2,29.1-12.5,39.7c-7.7,9.9-17.8,16.8-30.3,20.8c-0.8,0.3-0.8,1.4,0,1.6c14.5,3.9,26.1,11.5,34.8,22.9
				c9.3,12.1,14,26,14,41.6C391.4,375.2,383.5,393.2,367.6,406.2z"/>
		</g>
	</g>
	<g>
		<path class="st2" d="M767.9,134.3c8.6,4.5,15.3,10.8,20,19c4.7,8.1,7.1,17.4,7.1,27.8c0,10.7-2.3,19.9-6.8,27.6
			c-4.5,7.7-11,13.6-19.4,17.7c-8.4,4.1-18.3,6.1-29.7,6.1h-44.9c0.3-3,0.4-18.4,0.4-46.1c0-34-0.1-53.5-0.4-58.7h44.3
			C749.6,127.5,759.4,129.8,767.9,134.3z M743.8,217.7c3.6,0,6.8-1.3,9.7-3.9c2.9-2.6,5.2-6.3,6.9-11.2c1.7-4.9,2.5-10.7,2.5-17.5
			c0-8.2-1.4-15.6-4.3-22.1c-2.9-6.5-6.6-11.6-11.2-15.2c-4.5-3.6-9.3-5.4-14.2-5.4h-4.5c-1.3,0-2.2,0.1-2.8,0.4
			c-0.6,0.2-1,0.8-1,1.6l-0.1,34l0.1,34.6c4.5,3.2,8.7,4.8,12.6,4.8H743.8z"/>
		<path class="st2" d="M915.7,223c0,2.6-1.4,4.9-4.1,7c-2.7,2-6.2,3.1-10.3,3.1c-4.1,0-8.2-1.2-12.3-3.6c-2.8-1.8-4.9-3.2-6.3-4.2
			c-8,5.9-18,8.8-30.1,8.8c-14.3,0-25.4-2.8-33.4-8.5c-8-5.7-12-13.4-12-23.2c0-5.9,2-11.1,6.1-15.5c4-4.4,9.6-8.6,16.6-12.4
			c-6.1-9.2-9.1-16.7-9.1-22.5c0-8,3.1-14.3,9.4-19c6.2-4.6,15.1-7,26.4-7c10.6,0,18.8,2.1,24.5,6.2c5.7,4.1,8.6,10.1,8.6,17.8
			c0,4.2-1.3,8-3.8,11.4c-2.5,3.4-5.7,6.4-9.5,9c-3.8,2.6-8.6,5.5-14.5,8.7c3.6,4.1,8.5,8.8,14.8,14.1c1.9-5.3,3-10.5,3.3-15.7
			c2.9-0.2,6.9,0.1,12,1c5.1,0.8,9.7,1.9,13.9,3.2c-2.3,10.9-5.2,19.8-8.8,26.7c3.6,2.6,8.2,5.7,13.9,9.3l4,2.5
			C915.4,221.1,915.7,222.1,915.7,223z M865.8,212.6c-9.1-7.5-16.7-14.8-22.9-21.9c-4.5,4-6.7,8-6.7,12c0,5,1.4,8.9,4.3,11.8
			c2.9,2.9,6.9,4.3,12,4.3C857.1,218.9,861.6,216.8,865.8,212.6z M851.2,163.2c3.8-2.2,6.7-4.3,8.8-6.4c2-2,3.1-4.2,3.1-6.5
			c0-3.5-0.7-6.1-2-7.7c-1.3-1.6-3.2-2.5-5.5-2.5c-2,0-3.6,1-4.9,2.9c-1.3,1.9-1.9,4.6-1.9,8C848.7,155.2,849.5,159.2,851.2,163.2z"
			/>
		<path class="st2" d="M1008.7,185.1c4.7,4.7,7,10.3,7,16.9c0,9.5-3.4,16.9-10.3,22.3s-16.4,8.1-28.6,8.1h-50.9
			c0.2-2.5,0.3-20,0.3-52.4c0-32.5-0.1-49.9-0.3-52.4h44c12.4,0,22,2.4,28.8,7.3c6.8,4.8,10.3,11.5,10.3,20c0,5.2-1.8,9.7-5.5,13.6
			c-3.6,3.9-8.1,6.5-13.4,7.9C997.8,177.5,1004,180.4,1008.7,185.1z M960,142.4c-1,0-1.8,0.1-2.4,0.3c-0.6,0.2-1,0.6-1.2,1.2
			c-0.1,5-0.2,13.9-0.2,26.8c1.4,0.5,3.4,0.7,6.1,0.7h6.4c3.8-0.4,6.6-1.8,8.4-4.3c1.8-2.4,2.7-5.6,2.7-9.5c0-4.6-1.4-8.3-4.3-11.1
			c-2.8-2.8-6.3-4.2-10.4-4.2H960z M971.5,217.4c4.1,0,7.3-1.3,9.7-3.9c2.4-2.6,3.6-6.1,3.6-10.6c0-5.4-1.7-9.6-5.1-12.6
			c-3.4-3-7.8-4.5-13.3-4.5h-5.7c-1.5,0-2.6,0.1-3.3,0.4c-0.7,0.3-1.1,1-1.2,2.2c0,12.7,0,21.6,0.2,26.7c1.6,0.9,3.2,1.5,4.7,1.8
			c1.5,0.3,3.5,0.4,5.9,0.4H971.5z"/>
		<path class="st2" d="M759,282.2c6.7,3.2,12,7.7,15.7,13.4c3.7,5.7,5.6,12.3,5.6,19.7c0,7.2-1.8,13.5-5.4,19
			c-3.6,5.4-8.8,9.7-15.6,12.7c-6.8,3-14.8,4.5-24,4.5h-10.8c0.2,18.5,0.3,28.8,0.4,30.9h-30.9c0.2-2.5,0.3-20,0.3-52.4
			c0-32.5-0.1-49.9-0.3-52.4H736C744.6,277.4,752.3,279,759,282.2z M737.2,336.5c3.7,0,6.6-1.8,8.8-5.5c2.2-3.6,3.3-8.4,3.3-14.3
			c0-7.5-1.5-13.4-4.6-17.8c-3-4.4-7.1-6.6-12.1-6.6h-4.6c-1,0-1.7,0.1-2.2,0.3c-0.5,0.2-0.8,0.7-1,1.3c-0.1,7.5-0.1,21.3-0.1,41.5
			c2.7,0.7,5.7,1,9.1,1H737.2z"/>
		<path class="st2" d="M854.2,382.2c-1.1-2.9-3.6-8.7-7.5-17.3c-3.9-8.6-6.8-14.5-8.7-17.6h-13.9c0,5.9,0,10.1,0.1,12.7
			c0,12,0.1,19.4,0.3,22.2h-30.9c0.2-4.6,0.3-19.9,0.3-45.8c0-34.6-0.1-54.2-0.3-59h40.5c10.1,0,18.7,1.6,25.8,4.9
			c7.1,3.2,12.5,7.6,16.2,13.1c3.6,5.5,5.5,11.6,5.5,18.3c0,5.9-1.4,11.2-4.1,16c-2.7,4.8-6.7,8.7-11.9,11.7c2,4.5,5.8,11.8,11.4,22
			c5.6,10.2,9.3,16.5,11.1,18.9H854.2z M836.4,332.3c4.5,0,7.9-1.5,10.3-4.6c2.3-3.1,3.5-7.4,3.5-12.9c0-6.2-1.4-11.2-4.3-15.1
			c-2.9-3.9-6.9-5.8-12.1-5.8H830c-1.8,0-3.1,0.2-4,0.7s-1.4,1.2-1.6,2.2c-0.1,6.5-0.1,17.8-0.1,34c4,1.1,7.1,1.6,9.4,1.6H836.4z"/>
		<path class="st2" d="M919.9,377.2c-8.4-4.4-15.2-10.8-20.2-19c-5-8.2-7.6-17.6-7.6-28.3c0-10.9,2.4-20.5,7.3-28.7
			c4.9-8.2,11.5-14.6,19.9-19c8.3-4.4,17.6-6.7,27.6-6.7c9.6,0,18.6,2.3,27,6.8c8.4,4.5,15.1,11,20.2,19.3
			c5.1,8.3,7.6,17.8,7.6,28.5c0,10.3-2.4,19.5-7.1,27.7c-4.7,8.2-11.3,14.6-19.6,19.2c-8.3,4.6-17.7,6.9-28.1,6.9
			C937.4,383.9,928.4,381.7,919.9,377.2z M964.4,360.4c3-5.6,4.6-12.3,4.6-20.1c0-9.8-1.2-18.5-3.5-26c-2.3-7.5-5.5-13.4-9.4-17.5
			c-3.9-4.1-8-6.1-12.4-6.1c-6.7,0-11.5,2.8-14.4,8.3c-2.9,5.5-4.3,12.3-4.3,20.3c0,9.8,1.1,18.5,3.4,26c2.3,7.5,5.4,13.3,9.2,17.4
			c3.8,4,8,6.1,12.5,6.1C956.6,368.7,961.4,366,964.4,360.4z"/>
		<path class="st2" d="M1081.9,282.2c6.7,3.2,12,7.7,15.7,13.4c3.7,5.7,5.6,12.3,5.6,19.7c0,7.2-1.8,13.5-5.4,19
			c-3.6,5.4-8.8,9.7-15.6,12.7c-6.8,3-14.8,4.5-24,4.5h-10.8c0.2,18.5,0.3,28.8,0.5,30.9h-30.9c0.2-2.5,0.3-20,0.3-52.4
			c0-32.5-0.1-49.9-0.3-52.4h41.8C1067.5,277.4,1075.1,279,1081.9,282.2z M1060.1,336.5c3.7,0,6.6-1.8,8.8-5.5
			c2.2-3.6,3.3-8.4,3.3-14.3c0-7.5-1.5-13.4-4.6-17.8c-3-4.4-7.1-6.6-12.1-6.6h-4.6c-1,0-1.7,0.1-2.2,0.3c-0.5,0.2-0.8,0.7-1,1.3
			c-0.1,7.5-0.2,21.3-0.2,41.5c2.7,0.7,5.7,1,9.1,1H1060.1z"/>
		<path class="st2" d="M1195.5,365.6v16.6h-79c0.2-2.2,0.3-19.3,0.3-51.4c0-32.7-0.1-50.5-0.3-53.5h76.9v16.5
			c-12.4-0.4-26.9-0.6-43.4-0.6c-1.7,0-2.7,0.4-3,1.3c-0.1,5-0.1,13.6-0.1,25.9h9.1c10.9,0,20.7-0.2,29.5-0.6v16.8
			c-8.5-0.3-21.4-0.5-38.7-0.5c0,13.9,0,23.6,0.1,29.1c1.5,0.4,3.5,0.7,6,0.8c2.5,0.2,6.4,0.2,11.7,0.2
			C1177.8,366.4,1188.1,366.1,1195.5,365.6z"/>
		<path class="st2" d="M1268.9,382.2c-1.1-2.9-3.6-8.7-7.5-17.3c-3.9-8.6-6.8-14.5-8.7-17.6h-13.9c0,5.9,0,10.1,0.2,12.7
			c0,12,0.1,19.4,0.3,22.2h-30.9c0.2-4.6,0.3-19.9,0.3-45.8c0-34.6-0.1-54.2-0.3-59h40.5c10.1,0,18.7,1.6,25.8,4.9
			c7.1,3.2,12.5,7.6,16.2,13.1c3.6,5.5,5.5,11.6,5.5,18.3c0,5.9-1.4,11.2-4.1,16c-2.7,4.8-6.7,8.7-11.9,11.7c2,4.5,5.8,11.8,11.4,22
			c5.6,10.2,9.3,16.5,11.1,18.9H1268.9z M1251.1,332.3c4.5,0,7.9-1.5,10.3-4.6c2.3-3.1,3.5-7.4,3.5-12.9c0-6.2-1.4-11.2-4.3-15.1
			c-2.9-3.9-6.9-5.8-12.1-5.8h-3.7c-1.8,0-3.1,0.2-4,0.7c-0.9,0.4-1.4,1.2-1.6,2.2c-0.1,6.5-0.2,17.8-0.2,34c4,1.1,7.1,1.6,9.4,1.6
			H1251.1z"/>
		<path class="st2" d="M1386.7,293.7c-6-0.2-15-0.4-27-0.6c-0.2,14.6-0.3,27.8-0.3,39.7c0,24.6,0.2,41,0.6,49.4h-30.9
			c0.3-6.8,0.4-24.7,0.4-53.8c0-17-0.1-28.8-0.1-35.4c-12,0.2-20.9,0.4-26.7,0.6v-16.3h83.9V293.7z"/>
		<path class="st2" d="M1397.8,382.2c0.2-2.2,0.3-19.3,0.3-51.4c0-32.7-0.1-50.5-0.3-53.5h30.9c-0.2,2.4-0.4,8.9-0.5,19.6
			c-0.1,10.6-0.1,21.9-0.1,33.9c0,11.9,0,23,0.1,33.4c0.1,10.4,0.2,16.4,0.5,18H1397.8z"/>
		<path class="st2" d="M1529,365.6v16.6h-79c0.2-2.2,0.3-19.3,0.3-51.4c0-32.7-0.1-50.5-0.3-53.5h76.9v16.5
			c-12.4-0.4-26.9-0.6-43.4-0.6c-1.7,0-2.7,0.4-3,1.3c-0.1,5-0.1,13.6-0.1,25.9h9.1c10.9,0,20.7-0.2,29.5-0.6v16.8
			c-8.5-0.3-21.4-0.5-38.7-0.5c0,13.9,0,23.6,0.1,29.1c1.5,0.4,3.5,0.7,6,0.8c2.5,0.2,6.4,0.2,11.7,0.2
			C1511.3,366.4,1521.6,366.1,1529,365.6z"/>
		<path class="st2" d="M1558.4,380.9c-7-2.2-12.6-5.2-16.7-9c-4.1-3.8-6.1-7.9-6.1-12.4c0-3.8,1.5-6.7,4.6-8.7c3.1-2,6.8-3,11.2-3
			c4.7,0,8.9,1,12.7,3.1c0.4,3.2,1.6,6.2,3.5,9c1.9,2.8,4.4,5,7.3,6.7c2.9,1.7,6,2.5,9.2,2.5c7.8,0,11.7-4,11.7-12.1
			c0-4.2-2.1-7.6-6.2-10.3c-4.1-2.7-11.2-5.3-21.2-7.9c-10.1-2.6-17.9-6.3-23.3-11.2c-5.4-4.9-8.2-12-8.2-21.4
			c0-6.4,2-11.9,5.9-16.6c3.9-4.6,9.2-8.1,15.9-10.5c6.6-2.3,14.1-3.5,22.2-3.5c6.9,0,13.4,1,19.6,2.9s11.1,4.7,14.9,8.2
			c3.8,3.5,5.7,7.6,5.7,12.2c0,3.2-1.6,5.9-4.9,8.2c-3.3,2.3-7.3,3.4-12.1,3.4c-4.5,0-9-1.1-13.5-3.4c-2-11.9-6.6-17.8-13.8-17.8
			c-2.7,0-4.9,0.9-6.7,2.7s-2.7,4.4-2.7,7.9c0,5.2,2,9.3,6.1,12.3c4,3,10.7,5.6,20,7.9c6.5,1.7,12,3.7,16.6,5.9
			c4.6,2.2,8.4,5.5,11.3,9.7c2.9,4.2,4.4,9.6,4.4,16.3c0,6.5-1.8,12.2-5.4,17c-3.6,4.8-8.7,8.6-15.4,11.2
			c-6.6,2.6-14.5,3.9-23.4,3.9C1573.2,384.2,1565.5,383.1,1558.4,380.9z"/>
	</g>
	<g>
		<g>
			<path class="st3" d="M722.8,462.2c-0.9,2.1-2.1,3.9-3.7,5.4c-1.6,1.5-3.5,2.7-5.7,3.6c-2.2,0.9-4.6,1.3-7.3,1.3h-11.7v-33.8h11.7
				c2.6,0,5.1,0.4,7.3,1.3c2.2,0.9,4.1,2,5.7,3.5c1.6,1.5,2.8,3.3,3.7,5.4c0.9,2.1,1.3,4.3,1.3,6.7
				C724.1,457.9,723.7,460.1,722.8,462.2z M719.1,450.4c-0.7-1.6-1.6-3.1-2.8-4.3c-1.2-1.2-2.7-2.2-4.4-2.8c-1.7-0.7-3.7-1-5.8-1
				h-7.9v26.7h7.9c2.1,0,4.1-0.3,5.8-1c1.7-0.7,3.2-1.6,4.4-2.8c1.2-1.2,2.1-2.6,2.8-4.2c0.7-1.6,1-3.4,1-5.3
				C720.1,453.8,719.8,452,719.1,450.4z"/>
		</g>
		<g>
			<path class="st3" d="M787.8,458c0,2.5-0.3,4.6-1,6.5c-0.7,1.9-1.6,3.4-2.9,4.7c-1.2,1.3-2.7,2.2-4.4,2.8
				c-1.7,0.6-3.6,0.9-5.8,0.9c-2.1,0-4-0.3-5.7-0.9c-1.7-0.6-3.2-1.6-4.4-2.8c-1.2-1.2-2.2-2.8-2.9-4.6c-0.7-1.8-1-3.9-1-6.3v-19.6
				h3.8v19.4c0,3.7,0.9,6.5,2.7,8.4c1.8,2,4.3,2.9,7.6,2.9c3.1,0,5.6-0.9,7.4-2.8c1.8-1.9,2.7-4.6,2.7-8.3v-19.6h3.8V458z"/>
		</g>
		<g>
			<path class="st3" d="M843.7,439.3c1.3,0.4,2.5,1,3.5,1.7c1,0.7,1.7,1.6,2.2,2.7c0.5,1,0.8,2.2,0.8,3.5c0,1.1-0.2,2.1-0.5,2.9
				c-0.3,0.8-0.7,1.6-1.2,2.2c-0.5,0.6-1.1,1.2-1.7,1.6s-1.3,0.8-1.9,1.1c1,0.3,1.9,0.7,2.8,1.1c0.9,0.5,1.6,1,2.3,1.7
				c0.6,0.6,1.2,1.4,1.5,2.3c0.4,0.9,0.6,1.9,0.6,3.1c0,1.4-0.3,2.7-0.9,3.9c-0.6,1.2-1.4,2.1-2.5,2.9c-1.1,0.8-2.4,1.4-3.9,1.8
				c-1.5,0.4-3.2,0.6-5,0.6h-15v-33.8h14.3C840.9,438.7,842.4,438.9,843.7,439.3z M844.2,452.2c1.4-1,2.2-2.5,2.2-4.6
				c0-1.7-0.6-3.1-1.9-4.1c-1.3-1-3.1-1.5-5.5-1.5h-10.2v11.7h10C840.9,453.7,842.8,453.2,844.2,452.2z M846.1,467.5
				c1.5-1.1,2.2-2.6,2.2-4.5c0-1.9-0.8-3.3-2.3-4.3s-3.7-1.5-6.7-1.5h-10.6v12H840C842.6,469.1,844.6,468.5,846.1,467.5z"/>
		</g>
		<g>
			<path class="st3" d="M919.2,472.4h-4.1l-4-8.9h-18.4l-4,8.9h-3.9l15.4-34h3.6L919.2,472.4z M902,442.9l-7.7,17.2h15.4L902,442.9z
				"/>
		</g>
		<g>
			<path class="st3" d="M958.1,438.7v33.8h-3.8v-33.8H958.1z"/>
		</g>
		<g>
			<path class="st3" d="M1070,472.4h-4.1l-4-8.9h-18.4l-4,8.9h-3.9l15.4-34h3.6L1070,472.4z M1052.8,442.9l-7.7,17.2h15.4
				L1052.8,442.9z"/>
		</g>
		<g>
			<path class="st3" d="M1129.6,438.7h3.7v33.8h-3l-21.8-27.7v27.7h-3.7v-33.8h3.6l21.3,27.1V438.7z"/>
		</g>
		<g>
			<path class="st3" d="M1199.2,462.2c-0.9,2.1-2.1,3.9-3.7,5.4c-1.6,1.5-3.5,2.7-5.7,3.6c-2.2,0.9-4.6,1.3-7.3,1.3h-11.7v-33.8
				h11.7c2.6,0,5.1,0.4,7.3,1.3c2.2,0.9,4.1,2,5.7,3.5c1.6,1.5,2.8,3.3,3.7,5.4c0.9,2.1,1.3,4.3,1.3,6.7
				C1200.5,457.9,1200.1,460.1,1199.2,462.2z M1195.6,450.4c-0.7-1.6-1.6-3.1-2.8-4.3c-1.2-1.2-2.7-2.2-4.4-2.8
				c-1.7-0.7-3.7-1-5.8-1h-7.9v26.7h7.9c2.1,0,4.1-0.3,5.8-1c1.7-0.7,3.2-1.6,4.4-2.8c1.2-1.2,2.1-2.6,2.8-4.2c0.7-1.6,1-3.4,1-5.3
				C1196.6,453.8,1196.3,452,1195.6,450.4z"/>
		</g>
		<g>
			<path class="st3" d="M1298.1,439.3c1.3,0.4,2.5,1,3.5,1.7c1,0.7,1.7,1.6,2.2,2.7c0.5,1,0.8,2.2,0.8,3.5c0,1.1-0.2,2.1-0.5,2.9
				c-0.3,0.8-0.7,1.6-1.2,2.2s-1.1,1.2-1.7,1.6c-0.6,0.4-1.3,0.8-1.9,1.1c1,0.3,1.9,0.7,2.8,1.1c0.9,0.5,1.6,1,2.3,1.7
				c0.6,0.6,1.2,1.4,1.5,2.3c0.4,0.9,0.6,1.9,0.6,3.1c0,1.4-0.3,2.7-0.9,3.9c-0.6,1.2-1.4,2.1-2.5,2.9c-1.1,0.8-2.4,1.4-3.9,1.8
				s-3.2,0.6-5,0.6h-15v-33.8h14.3C1295.2,438.7,1296.7,438.9,1298.1,439.3z M1298.5,452.2c1.4-1,2.2-2.5,2.2-4.6
				c0-1.7-0.6-3.1-1.9-4.1c-1.3-1-3.1-1.5-5.5-1.5H1283v11.7h10C1295.2,453.7,1297.1,453.2,1298.5,452.2z M1300.4,467.5
				c1.5-1.1,2.2-2.6,2.2-4.5c0-1.9-0.8-3.3-2.3-4.3s-3.7-1.5-6.7-1.5H1283v12h11.3C1296.9,469.1,1298.9,468.5,1300.4,467.5z"/>
		</g>
		<g>
			<path class="st3" d="M1366.5,442.2h-20.6v11.5h18.4v3.5h-18.4V469h20.8v3.5h-24.6v-33.8h24.4V442.2z"/>
		</g>
		<g>
			<path class="st3" d="M1416.8,472.4h-3.8v-13.4l-14-20.4h4.6l11.4,16.9l11.5-16.9h4.4l-14,20.4V472.4z"/>
		</g>
		<g>
			<path class="st3" d="M1493.8,462.2c-0.8,2.1-2,4-3.5,5.6c-1.5,1.6-3.3,2.9-5.5,3.8c-2.1,0.9-4.5,1.4-7,1.4s-4.9-0.5-7-1.4
				s-3.9-2.2-5.4-3.8c-1.5-1.6-2.7-3.4-3.5-5.5c-0.8-2.1-1.2-4.3-1.2-6.7c0-2.3,0.4-4.6,1.3-6.7c0.8-2.1,2-4,3.5-5.6
				c1.5-1.6,3.3-2.9,5.4-3.8c2.1-0.9,4.5-1.4,7-1.4s4.9,0.5,7,1.4c2.1,0.9,3.9,2.2,5.4,3.8c1.5,1.6,2.7,3.4,3.5,5.5
				c0.8,2.1,1.2,4.3,1.2,6.7C1495.1,457.9,1494.7,460.1,1493.8,462.2z M1490.2,450.2c-0.7-1.7-1.6-3.2-2.8-4.4
				c-1.2-1.3-2.6-2.2-4.2-3c-1.6-0.7-3.4-1.1-5.3-1.1s-3.7,0.4-5.3,1.1c-1.6,0.7-3,1.7-4.2,3c-1.2,1.3-2.1,2.7-2.7,4.4
				c-0.7,1.7-1,3.5-1,5.4c0,1.9,0.3,3.7,1,5.5s1.6,3.2,2.8,4.4c1.2,1.3,2.6,2.3,4.2,3c1.6,0.7,3.4,1.1,5.3,1.1s3.7-0.4,5.3-1.1
				s3-1.7,4.2-3c1.2-1.3,2.1-2.7,2.7-4.4c0.7-1.7,1-3.5,1-5.4S1490.8,451.9,1490.2,450.2z"/>
		</g>
		<g>
			<path class="st3" d="M1556.1,438.7h3.7v33.8h-3l-21.8-27.7v27.7h-3.7v-33.8h3.6l21.3,27.1V438.7z"/>
		</g>
		<g>
			<path class="st3" d="M1625.7,462.2c-0.9,2.1-2.1,3.9-3.7,5.4c-1.6,1.5-3.5,2.7-5.7,3.6s-4.6,1.3-7.3,1.3h-11.7v-33.8h11.7
				c2.6,0,5.1,0.4,7.3,1.3c2.2,0.9,4.1,2,5.7,3.5s2.8,3.3,3.7,5.4c0.9,2.1,1.3,4.3,1.3,6.7C1627,457.9,1626.6,460.1,1625.7,462.2z
				 M1622.1,450.4c-0.7-1.6-1.6-3.1-2.8-4.3c-1.2-1.2-2.7-2.2-4.4-2.8c-1.7-0.7-3.7-1-5.8-1h-7.9v26.7h7.9c2.1,0,4.1-0.3,5.8-1
				c1.7-0.7,3.2-1.6,4.4-2.8c1.2-1.2,2.1-2.6,2.8-4.2c0.7-1.6,1-3.4,1-5.3C1623.1,453.8,1622.8,452,1622.1,450.4z"/>
		</g>
	</g>
	<g>
		<path class="st2" d="M593.6,79c2.5,135,2.4,285.1,0,420.1C591.2,364,591.1,214,593.6,79L593.6,79z"/>
	</g>
</g>
</svg>
